# xmcd CD database file
# Copyright (C) 1997 Ti Kan
# 
# Track frame offsets:
#     150
#     18007
#     33777
#     50762
#     64312
#     75465
#     92282
#     102805
#     119937
#     139360
#     152267
#     162415
#     176822
# 
# Disc length: 2503 seconds
# 
# Revision: 1
# Processed by: cddbd v1.4b41PL1 Copyright (c) Steve Scherf et al.
# Submitted via: DiscPlay 4.0.2
# 
DISCID=a209c50d
DTITLE=Ramblin' Rex - Build For Comfort
DYEAR=1900
DGENRE=
TTITLE0=Blueman
TTITLE1=Hands Off of Her
TTITLE2=Pretty Girls
TTITLE3=Born For Ramblin'
TTITLE4=Mighty Crazy
TTITLE5=Won't Be Very Long
TTITLE6=Buzz Buzz
TTITLE7=Neighbor, Neighbor
TTITLE8=Drown In My Own Tears
TTITLE9=Cotton Pickin' Rock
TTITLE10=Build For Comfort
TTITLE11=Old Acapella
TTITLE12=Blue Feeling
EXTD=
EXTT0=
EXTT1=
EXTT2=
EXTT3=
EXTT4=
EXTT5=
EXTT6=
EXTT7=
EXTT8=
EXTT9=
EXTT10=
EXTT11=
EXTT12=
PLAYORDER=
